<svg width="481" height="165" viewBox="0 0 481 165" fill="none" xmlns="http://www.w3.org/2000/svg">
<path d="M381.52 0.000883468C398.436 -0.10141 414.168 8.68505 423.25 23.4011C421.726 28.0008 420.576 32.8763 419.821 37.9388C399.767 36.2073 383.847 20.4202 381.52 0.000883468Z" fill="#01112C"/>
<path d="M45.6941 164.291C36.6878 164.291 28.741 161.973 21.8537 157.338C14.9665 152.702 9.60241 146.477 5.76145 138.663C1.92048 130.716 0 121.776 0 111.842C0 101.512 2.25159 92.3064 6.75476 84.2273C11.258 76.0151 17.6154 69.5257 25.8271 64.7572C34.1712 59.9894 43.9723 57.6055 55.2303 57.6055C66.6205 57.6055 76.2893 59.9894 84.2359 64.7572C92.3157 69.3932 98.4739 75.8164 102.712 84.0286C107.083 92.1077 109.269 101.18 109.269 111.246V161.907H79.0707V145.616H78.2758C76.4218 149.192 74.0379 152.437 71.1241 155.351C68.2102 158.132 64.634 160.318 60.3957 161.907C56.2899 163.497 51.3893 164.291 45.6941 164.291ZM54.833 137.669C59.4686 137.669 63.508 136.544 66.9517 134.292C70.5279 131.908 73.243 128.663 75.097 124.557C76.9517 120.451 77.8784 115.882 77.8784 110.849C77.8784 105.948 76.9517 101.512 75.097 97.5379C73.243 93.5643 70.5279 90.4524 66.9517 88.2003C63.508 85.8164 59.4686 84.6241 54.833 84.6241C50.0649 84.6241 45.8928 85.8164 42.3167 88.2003C38.7407 90.4524 36.0255 93.5643 34.1712 97.5379C32.317 101.512 31.3899 105.948 31.3899 110.849C31.3899 115.882 32.317 120.451 34.1712 124.557C36.0255 128.663 38.7407 131.908 42.3167 134.292C45.8928 136.544 50.0649 137.669 54.833 137.669Z" fill="#01112C"/>
<path d="M132.029 161.896V16.8672H162.823V161.896H132.029Z" fill="#01112C"/>
<path d="M185.586 161.907V101.71C185.586 93.3662 187.507 85.8826 191.347 79.2601C195.321 72.5058 200.95 67.2074 208.235 63.3669C215.519 59.5257 224.194 57.6055 234.26 57.6055C239.293 57.6055 243.929 58.201 248.167 59.3933C252.406 60.4531 256.246 61.9759 259.69 63.963C263.266 65.817 266.312 68.0685 268.829 70.7174H269.226C271.875 68.0685 274.921 65.817 278.365 63.963C281.941 61.9759 285.848 60.4531 290.087 59.3933C294.457 58.201 299.159 57.6055 304.192 57.6055C314.258 57.6055 322.934 59.5257 330.218 63.3669C337.503 67.2074 343.132 72.5058 347.105 79.2601C351.078 85.8826 353.065 93.3662 353.065 101.71V161.907H322.073V102.703C322.073 99.3919 321.211 96.4119 319.49 93.763C317.9 90.9816 315.715 88.7302 312.934 87.0086C310.152 85.2865 306.974 84.426 303.397 84.426C299.822 84.426 296.577 85.2865 293.663 87.0086C290.882 88.7302 288.696 90.9816 287.107 93.763C285.517 96.4119 284.723 99.3919 284.723 102.703V161.907H253.929V102.703C253.929 99.3919 253.068 96.4119 251.346 93.763C249.757 90.9816 247.505 88.7302 244.591 87.0086C241.81 85.2865 238.631 84.426 235.055 84.426C231.479 84.426 228.234 85.2865 225.32 87.0086C222.539 88.7302 220.354 90.9816 218.764 93.763C217.175 96.4119 216.38 99.3919 216.38 102.703V161.907H185.586Z" fill="#01112C"/>
<path d="M416.84 164.291C407.834 164.291 399.887 161.973 393 157.338C386.113 152.702 380.748 146.477 376.908 138.663C373.067 130.716 371.146 121.776 371.146 111.842C371.146 101.512 373.398 92.3064 377.901 84.2273C382.404 76.0151 388.762 69.5257 396.973 64.7572C405.317 59.9894 415.119 57.6055 426.377 57.6055C437.767 57.6055 447.436 59.9894 455.382 64.7572C463.461 69.3932 469.62 75.8164 473.859 84.0286C478.229 92.1077 480.415 101.18 480.415 111.246V161.907H450.217V145.616H449.422C447.568 149.192 445.184 152.437 442.271 155.351C439.357 158.132 435.78 160.318 431.542 161.907C427.436 163.497 422.535 164.291 416.84 164.291ZM425.979 137.669C430.615 137.669 434.654 136.544 438.098 134.292C441.674 131.908 444.389 128.663 446.243 124.557C448.098 120.451 449.025 115.882 449.025 110.849C449.025 105.948 448.098 101.512 446.243 97.5379C444.389 93.5643 441.674 90.4524 438.098 88.2003C434.654 85.8164 430.615 84.6241 425.979 84.6241C421.211 84.6241 417.039 85.8164 413.463 88.2003C409.887 90.4524 407.171 93.5643 405.317 97.5379C403.463 101.512 402.536 105.948 402.536 110.849C402.536 115.882 403.463 120.451 405.317 124.557C407.171 128.663 409.887 131.908 413.463 134.292C417.039 136.544 421.211 137.669 425.979 137.669Z" fill="#01112C"/>
<path fill-rule="evenodd" clip-rule="evenodd" d="M437.876 11.1708C437.857 11.1875 437.838 11.204 437.819 11.2202C428.676 17.8634 423.705 34.4216 423.65 51.3908C424.551 51.3614 425.46 51.3464 426.375 51.3464C428.578 51.3464 430.735 51.4295 432.845 51.5976C432.958 38.353 438.273 32.8367 445.79 25.0349C447.62 23.1356 449.58 21.1007 451.628 18.786C452.972 16.3794 452.467 12.7851 447.644 9.79199C442.877 6.83424 439.489 9.77256 437.876 11.1708Z" fill="#01112C"/>
</svg>
